<svg width="40" height="40" viewBox="0 0 40 40" fill="none" xmlns="http://www.w3.org/2000/svg">
<g filter="url(#filter0_d_32_33)">
<path d="M4 19C4 10.1634 11.1634 3 20 3V3C28.8366 3 36 10.1634 36 19V19C36 27.8366 28.8366 35 20 35V35C11.1634 35 4 27.8366 4 19V19Z" fill="white"/>
<path d="M17.3057 25.6943C17.7139 26.1017 18.3757 26.1017 18.7839 25.6943L24.697 19.7931C24.9227 19.5678 25.0236 19.2653 24.9997 18.9708C25.0058 18.696 24.9039 18.4193 24.694 18.2096L18.7836 12.3057C18.3756 11.8981 17.714 11.8981 17.306 12.3057C16.898 12.7133 16.898 13.3741 17.306 13.7817L22.5326 19.0025L17.3057 24.219C16.8975 24.6264 16.8975 25.2869 17.3057 25.6943Z" fill="#234D96"/>
</g>
<defs>
<filter id="filter0_d_32_33" x="0" y="0" width="40" height="40" filterUnits="userSpaceOnUse" color-interpolation-filters="sRGB">
<feFlood flood-opacity="0" result="BackgroundImageFix"/>
<feColorMatrix in="SourceAlpha" type="matrix" values="0 0 0 0 0 0 0 0 0 0 0 0 0 0 0 0 0 0 127 0" result="hardAlpha"/>
<feOffset dy="1"/>
<feGaussianBlur stdDeviation="2"/>
<feColorMatrix type="matrix" values="0 0 0 0 0 0 0 0 0 0 0 0 0 0 0 0 0 0 0.25 0"/>
<feBlend mode="normal" in2="BackgroundImageFix" result="effect1_dropShadow_32_33"/>
<feBlend mode="normal" in="SourceGraphic" in2="effect1_dropShadow_32_33" result="shape"/>
</filter>
</defs>
</svg>
